<svg version="1.1" viewBox="0.0 0.0 256.0 256.0" fill="none" stroke="none" stroke-linecap="square" stroke-miterlimit="10" xmlns:xlink="http://www.w3.org/1999/xlink" xmlns="http://www.w3.org/2000/svg"><clipPath id="p.0"><path d="m0 0l256.0 0l0 256.0l-256.0 0l0 -256.0z" clip-rule="nonzero"/></clipPath><g clip-path="url(#p.0)"><path fill="#000000" fill-opacity="0.0" d="m0 0l256.0 0l0 256.0l-256.0 0z" fill-rule="evenodd"/><path fill="#000000" fill-opacity="0.0" d="m8.942257 127.997375l0 0c0 -65.75233 53.30279 -119.055115 119.055115 -119.055115l0 0c31.575378 0 61.857513 12.543272 84.18468 34.870438c22.327164 22.327168 34.870438 52.609303 34.870438 84.18468l0 0c0 65.75232 -53.302795 119.055115 -119.055115 119.055115l0 0c-65.75233 0 -119.055115 -53.302795 -119.055115 -119.055115z" fill-rule="evenodd"/><path stroke="#000000" stroke-width="16.0" stroke-linejoin="round" stroke-linecap="butt" d="m8.942257 127.997375l0 0c0 -65.75233 53.30279 -119.055115 119.055115 -119.055115l0 0c31.575378 0 61.857513 12.543272 84.18468 34.870438c22.327164 22.327168 34.870438 52.609303 34.870438 84.18468l0 0c0 65.75232 -53.302795 119.055115 -119.055115 119.055115l0 0c-65.75233 0 -119.055115 -53.302795 -119.055115 -119.055115z" fill-rule="evenodd"/><path fill="#000000" d="m127.98206 44.041996c-3.9389496 0 -7.332138 1.4234886 -10.179573 4.270462c-2.8237076 2.8469734 -4.2355576 6.2396164 -4.2355576 10.177925c0 3.9383125 1.41185 7.3309593 4.2355576 10.177929c2.847435 2.8232498 6.2406235 4.234871 10.179573 4.234871c3.9389572 0 7.3321457 -1.4116211 10.179573 -4.234871c2.8474426 -2.8469696 4.271164 -6.2396164 4.271164 -10.177929c0 -3.9383087 -1.4237213 -7.3309517 -4.271164 -10.177925c-2.8474274 -2.8469734 -6.240616 -4.270462 -10.179573 -4.270462zm0 48.327366c-3.2033615 0 -5.8728333 1.0201645 -8.008408 3.0604935c-2.111847 2.040329 -3.1677704 4.744957 -3.1677704 8.113876l0 97.29529c0 3.2028503 1.0559235 5.860016 3.1677704 7.971527c2.1355743 2.1115112 4.805046 3.1672668 8.008408 3.1672668c3.3457413 0 6.038933 -1.0557556 8.079597 -3.1672668c2.0406647 -2.1115112 3.0609894 -4.7686768 3.0609894 -7.971527l0 -97.29529c0 -3.3689194 -1.0203247 -6.0735474 -3.0609894 -8.113876c-2.0406647 -2.040329 -4.733856 -3.0604935 -8.079597 -3.0604935z" fill-rule="evenodd"/></g></svg>