<svg width="179" height="222" viewBox="0 0 179 222" fill="none" xmlns="http://www.w3.org/2000/svg">
<ellipse cx="89.5" cy="192" rx="89.5" ry="30" fill="#F7CE8B"/>
<ellipse cx="89.5" cy="183" rx="89.5" ry="29" fill="#DF742C"/>
<ellipse cx="89.5" cy="166" rx="89.5" ry="30" fill="#F7CE8B"/>
<ellipse cx="89.5" cy="157" rx="89.5" ry="29" fill="#DF742C"/>
<ellipse cx="89.5" cy="140" rx="89.5" ry="30" fill="#F7CE8B"/>
<ellipse cx="89.5" cy="131" rx="89.5" ry="29" fill="#DF742C"/>
<ellipse cx="89.5" cy="114" rx="89.5" ry="30" fill="#F7CE8B"/>
<ellipse cx="89.5" cy="105" rx="89.5" ry="29" fill="#DF742C"/>
<ellipse cx="89.5" cy="88" rx="89.5" ry="30" fill="#F7CE8B"/>
<ellipse cx="89.5" cy="79" rx="89.5" ry="29" fill="#DF742C"/>
<path d="M68.2298 80.0697C66.7261 72.5298 77.4809 73.657 89.0281 73.4544C100.575 73.2518 109.936 73.0876 110.046 79.3361C110.24 90.4154 101.037 99.5612 89.4896 99.7638C77.9425 99.9664 68.4241 91.149 68.2298 80.0697Z" fill="#B04121"/>
<path d="M145 76C145 85.3888 119.928 93 89 93C58.0721 93 33 85.3888 33 76C33 66.6112 58.0721 59 89 59C119.928 59 145 66.6112 145 76Z" fill="#B04121"/>
<path d="M63.9173 64.276C69.9468 64.4284 74.4694 78.9983 74.0188 96.8187C73.5683 114.639 72.3873 128.809 62.2858 128.809C52.1842 128.809 51.7337 114.087 52.1842 96.2667C52.6348 78.4463 57.8878 64.1235 63.9173 64.276Z" fill="#B04121"/>
<path d="M113.132 69.276C119.161 69.4284 126.611 88.6056 126 112.79C125.389 136.975 125.5 156.857 110.917 156.857C101.107 156.857 100.389 136.975 101 112.79C101 92 107.102 69.1236 113.132 69.276Z" fill="#B04121"/>
<path d="M92.5 34L69.9002 13.621C58.2618 3.12627 40.4942 3.40151 29.1865 14.2517L28.5278 14.8837C16.3582 26.5609 16.6611 46.1135 29.1865 57.4081V57.4081C40.4942 67.6046 57.757 67.3372 68.7435 56.7953L92.5 34ZM92.5 34L116.354 12.4902C127.375 2.55197 144.125 2.55196 155.146 12.4902V12.4902C167.903 23.9931 167.903 44.0069 155.146 55.5098L154.69 55.9214C143.812 65.7302 127.387 66.0788 116.103 56.7403L114 55L92.5 34Z" stroke="#B04121" stroke-width="10"/>
</svg>
