<?xml version="1.0" encoding="UTF-8" standalone="no"?>
<svg xmlns:rdf="http://www.w3.org/1999/02/22-rdf-syntax-ns#" xmlns="http://www.w3.org/2000/svg" xml:space="preserve" height="265.08" viewBox="0 0 265.0777 265.07651" width="265.08" version="1.1" xmlns:cc="http://creativecommons.org/ns#" xmlns:dc="http://purl.org/dc/elements/1.1/"><g transform="matrix(1.25 0 0 -1.25 -412.9 761.81)"><g style=""><path d="m132.94 1.7988c-72.239 0-130.8 58.561-130.8 130.8 0.0006 72.24 58.561 130.8 130.8 130.8 72.25 0 130.81-58.56 130.81-130.8s-58.56-130.8-130.81-130.8zm0 23.947c59.02 0 106.86 47.839 106.86 106.85 0 59.02-47.84 106.86-106.86 106.86-59.013 0-106.85-47.84-106.85-106.86-0.002-59.015 47.837-106.85 106.85-106.85zm-58.237 30.27v52.934h56.327v-52.934h-56.327zm59.887 56.114v52.93h55.36v-52.93h-55.36zm-59.631 56.06v10.42c0 31.03 57.471 55.02 57.471 55.02v-65.44h-57.471z" transform="matrix(.8 0 0 -.8 330.32 609.45)" fill="#c00"/><path d="m541.32 503.36c0-57.793-46.85-104.64-104.64-104.64-57.794 0-104.64 46.849-104.64 104.64 0 57.794 46.849 104.64 104.64 104.64 57.794 0 104.64-46.849 104.64-104.64zm-19.159 0c0 47.213-38.272 85.485-85.484 85.485-47.213 0-85.485-38.272-85.485-85.485 0-47.212 38.272-85.484 85.485-85.484 47.212 0 85.484 38.272 85.484 85.484z" stroke="#000" stroke-miterlimit="3.8636" stroke-width="1.1763" fill="none"/><path d="m130.22 7.9453l-5.65 0.459 0.06 0.6953 2.04 0.1856 0.56 7.0178c0.09 1.105 0.24 2.904-0.48 3.931-0.88 1.287-2.49 1.809-3.51 1.893-3.13 0.253-4.5-1.653-4.69-4.707l-0.6-7.4278 1.98-0.5117-0.06-0.6953-6.02 0.4882 0.06 0.6954 2.03 0.1852 0.67 8.186c0.19 3.156 2.26 5.274 6.56 4.926 4.6-0.374 6.01-3.271 5.69-7.26l-0.56-6.8537 1.98-0.5117-0.06-0.6953zm2.6 0.0625l-0.62 3.4822 0.71 0.041 0.87-2.2341c0.62-0.0071 1.32-0.0098 2.03 0.0312l2.55 0.1407-0.68 12.121-2.3 0.221-0.03 0.697 6.56 0.367 0.04-0.699-2.26-0.475 0.68-12.119 2.6 0.1446c0.76 0.0428 1.5 0.1252 2.15 0.2031l0.36 2.3023 0.76 0.043 0.01-3.5172-13.43-0.75zm15.87 1.1055l-0.12 0.6875 1.92 0.6912-2.11 12.049-2.04-0.004-0.13 0.688 10.27 1.798 1.44-3.289-0.73-0.129-1.2 2.063-5.6-0.982 0.97-5.52 3.74 0.656 0.09 1.621 0.61 0.108c0.07-1.113 0.4-3.014 0.71-4.084l-0.6-0.108-0.65 1.45-3.72-0.653 0.91-5.215 4.47 0.784 0.2 2.076 0.63 0.109 0.26-3.162-9.32-1.6347zm-37.11 0.6035l-13.123 2.9242 0.342 3.519 0.701-0.156 0.227-2.385c0.593-0.173 1.263-0.366 1.963-0.521l2.49-0.555 2.63 11.842-2.14 0.836 0.15 0.681 6.41-1.429-0.15-0.682-2.3 0.156-2.64-11.842 2.54-0.566c0.74-0.165 1.48-0.286 2.12-0.389l0.98 2.118 0.74-0.166-0.94-3.3852zm-15.215 3.6682l-5.738 1.867 0.215 0.664 2.021-0.291 3.783 11.633-1.804 0.955 0.217 0.664 5.741-1.867-0.22-0.664-2.019 0.291-3.786-11.635 1.805-0.953-0.215-0.664zm-7.562 2.363l-12.346 5.336 0.998 3.393 0.66-0.286-0.226-2.384c0.549-0.283 1.172-0.596 1.832-0.881l2.338-1.012 4.814 11.139-1.953 1.224 0.275 0.643 6.03-2.608-0.276-0.64-2.23 0.584-4.813-11.139 2.393-1.033c0.697-0.302 1.391-0.559 2.012-0.781l1.357 1.896 0.697-0.301-1.562-3.15zm92.187 2.674c-2.57 0.136-4.76 1.787-6.1 4.713-1.72 3.751-0.75 7.681 4.01 9.867 4.03 1.851 7.86 0.464 9.57-3.27 1.96-4.274 0.96-8.349-3.8-10.535-1.28-0.586-2.52-0.837-3.68-0.775zm1.22 0.947c0.67 0.015 1.36 0.183 2.06 0.504 2.71 1.244 4.1 4.845 2.32 8.746-1.39 3.025-3.8 5.309-7.27 3.715-3.25-1.492-3.95-5.023-2.06-9.148 1.17-2.548 2.95-3.862 4.95-3.817zm-109.36 3.889c-0.906 0.402-1.95 0.602-2.823 1.103-2.49 1.432-3.116 3.803-2.031 5.69 2.599 4.519 7.979 0.123 9.729 3.166 0.899 1.565 0.197 2.94-1.28 3.789-0.764 0.44-2.377 0.846-3.199 0.324-0.535-0.355-1.188-0.996-1.873-1.857l-0.504 0.478 1.893 2.842c1.258 0.13 2.97-0.477 4.179-1.172 2.616-1.504 3.182-3.938 1.893-6.18-2.066-3.593-7.529 0.661-9.482-2.738-0.778-1.352-0.305-2.713 1.011-3.471 1.513-0.869 2.745-0.084 3.787 1.069l0.536-0.428-1.836-2.615zm121.29 1.004l-0.37 0.593 1.7 1.463-6.43 10.403-2.07-0.869-0.37 0.593 5.49 3.389 0.36-0.594-1.7-1.461 3.05-4.941 3.53 2.18-0.52 1.539 0.53 0.324c0.48-1.007 1.49-2.648 2.18-3.526l-0.53-0.324-1.14 1.104-3.51-2.17 2.79-4.502 3.94 2.439-0.7 2.075 0.59 0.365 1.52-2.922-8.34-5.158zm-130.93 4.283l-4.156 3.158 0.424 0.557 1.812-0.942 6.129 8.063-14.793-2.793-2.992 2.273 0.422 0.557 1.814-0.939 7.408 9.748-1.392 1.496 0.424 0.556 4.218-3.207-0.421-0.556-1.879 0.99-6.514-8.57c3.291 0.595 13.796 2.569 15.824 2.962l0.819-0.621-8.116-10.679 1.391-1.496-0.422-0.557zm-15.078 11.988l-4.387 4.149 0.479 0.506 1.703-1.129 8.41 8.892-1.221 1.637 0.481 0.508 4.385-4.149-0.479-0.508-1.703 1.129-8.41-8.892 1.222-1.637-0.48-0.506zm169.29 0.518l-2.81 2.154 0.51 0.514 2.14-1.073c0.46 0.411 0.98 0.88 1.48 1.393l1.79 1.816-8.66 8.514-1.85-1.381-0.49 0.491 4.6 4.687 0.5-0.49-1.35-1.871 8.66-8.512 1.83 1.859c0.54 0.543 1.02 1.099 1.45 1.596l-1.27 1.951 0.53 0.543 2.37-2.596-9.43-9.595zm10.97 11.478l-0.55 0.43 0.96 1.803-9.67 7.502-1.51-1.375-0.55 0.427 6.39 8.241 3.28-1.475-0.46-0.584-2.27 0.723-3.48-4.494 4.42-3.436 2.33 3.002-1.02 1.262 0.38 0.484c0.8-0.777 2.32-1.959 3.28-2.541l-0.38-0.486-1.46 0.634-2.31-2.984 4.18-3.248 2.78 3.586-1.25 1.672 0.39 0.502 2.33-2.164-5.81-7.481zm-195.21 3.766l-2.907 4.184 0.575 0.398 1.435-1.455 3.014 6.068-6.985-0.347 0.862-1.854-0.574-0.398-3.573 5.146 0.575 0.399 1.435-1.456 8.473 0.508 4.099 2.846-1.084 2.172 0.575 0.398 3.888-5.601-0.574-0.397-1.656 1.774-4.067-2.823-3.589-7.617 0.65-1.547-0.572-0.398zm77.74 6.529c-0.91-0.001-1.8 0.012-2.66 0.074-0.06 0.934 0.04 1.832-0.09 2.764-0.19-0.004-0.47 0.07-0.66-0.09l0.01-2.648-0.12-0.078c-2.65 0.032-5.33 0.023-7.98 0.093-0.015 0.896-0.033 1.829-0.088 2.723-0.195-0.003-0.507 0.069-0.66-0.088-0.063-0.859 0.07-1.829-0.031-2.648-1.789-0.149-3.503-0.022-5.254-0.053l-0.119 0.076-0.067 6.112c1.105 1.381 2.291 2.531 3.317 3.951l-1.258 16.367-4.092 13.631 0.016 1.29h20.086l6.74-0.04c0.01-0.47 0.09-0.97-0.05-1.4l-4.84-13.012-2.37-16.004-0.1-1.014c1-1.189 2.03-2.379 2.99-3.57l0.07-6.305-0.08-0.117c-0.89 0.004-1.81-0.012-2.71-0.014zm-0.31 1.215c0.51-0.001 1.01 0.009 1.52 0.018l0.07 0.39-0.06 3.619-0.24 0.075-17.205 0.011-0.076-0.08 0.031-3.97 3.387-0.018 0.115 0.117v2.221c0.582 0.126 1.282 0.099 1.868 0.07 0.17-0.776-0.01-1.634 0.12-2.371 2.26-0.078 4.52-0.117 6.81-0.037l0.04 2.336c0.62 0.088 1.36 0.063 1.98 0.074l0.08-0.115 0.04-2.297c0.51-0.03 1.02-0.042 1.52-0.043zm124.62 2.041c-1.38-0.067-2.84 0.345-4.33 1.231-4.68 2.782-4.69 6.992-2.3 11 0.68 1.148 1.57 2.289 2.66 3.361l3.15-0.129 0.09-0.65c-2.18 0.03-3.87-0.971-4.97-2.825-1.96-3.284-0.45-7.337 3.19-9.5 3.29-1.953 5.87-0.906 7.74 2.254 2.01 3.374 1.15 5.13-0.36 6.262l0.37 0.619 3.06-2.084c-0.47-1.634-1.46-3.911-2.22-5.181-1.67-2.803-3.77-4.246-6.08-4.358zm-124.51 3.014c0.51 0.009 1.01-0.023 1.44 0.062l-2.62 2.953c-4.05 0.007-8.02 0.093-12.11 0.022l-2.557-2.963 0.156-0.037 15.691-0.037zm-87.601 2.435l-4.447 8.358 0.617 0.328 1.254-1.611 10.805 5.75-0.639 1.939 0.617 0.33 4.901-9.211-2.686-2.383-0.348 0.653 1.59 1.777-2.672 5.021-4.949-2.632 1.785-3.356 1.569 0.416 0.289-0.543c-1.036-0.413-2.739-1.319-3.66-1.949l-0.29 0.545 1.176 1.066-1.775 3.336-4.678-2.488 2.133-4.006 2.037 0.455 0.299-0.562-2.928-1.233zm86.131 1.51l0.08 0.117 2.64 17.762-9.69 0.103c-1.95 0.005-4.012 0.006-5.919-0.066l0.069-1.672 1.334-16.172c3.816-0.09 7.706-0.059 11.486-0.072zm136.24 5.309l-0.65 0.265 0.45 1.992-11.3 4.682-1.1-1.726-0.64 0.267 2.31 5.574 0.65-0.267-0.45-1.99 5.46-2.262 3.11 7.508-5.46 2.261-1.1-1.724-0.64 0.267 2.31 5.573 0.64-0.268-0.44-1.99 11.3-4.68 1.09 1.723 0.64-0.268-2.31-5.572-0.64 0.266 0.44 1.992-4.88 2.025-3.12-7.506 4.9-2.027 1.09 1.725 0.64-0.266-2.3-5.574zm-228.27 5.261c-0.465 0.875-1.166 1.677-1.543 2.61-1.077 2.663-0.104 4.915 1.912 5.73 4.832 1.956 6.355-4.822 9.609-3.506 1.675 0.677 1.969 2.192 1.33 3.77-0.331 0.819-1.35 2.133-2.318 2.228-0.64 0.052-1.549-0.05-2.619-0.306l-0.102 0.689 3.242 1.069c1.07-0.674 2.044-2.207 2.567-3.5 1.132-2.797 0.077-5.061-2.32-6.032-3.844-1.554-5.519 5.162-9.153 3.692-1.446-0.585-1.915-1.948-1.346-3.356 0.655-1.617 2.108-1.759 3.639-1.494l0.158-0.666-3.056-0.928zm92.829 8.17l2.38 0.041c0.15 0.315 0.26 0.668 0.37 0.981l-0.39 0.07-16.588-0.016c0.084-0.348 0.091-0.817 0.367-1.007l13.861-0.069zm0.22 2.213c1-0.012 2-0.013 3.01 0.024 1.08 2.901 2.2 5.76 3.24 8.664l-4.91 0.03-14.21 0.06c-1.516-0.06-3.038 0.06-4.515-0.04 0.83-2.904 1.657-5.772 2.525-8.638l0.393-0.071 11.487 0.008c0.99-0.003 1.98-0.025 2.98-0.037zm142.28 1.862l-0.68 0.164 0.14 2.039-11.89 2.903-0.81-1.874-0.68 0.166 1.25 5.148 0.68-0.17-0.15-2.11 10.45-2.556c-1.86 2.776-7.86 11.616-9.03 13.316l0.24 1 13.03-3.18 0.81 1.87 0.68-0.16-1.23-5.07-0.68 0.17 0.13 2.03-9.83 2.41 8.46-12.448-0.89-3.648zm-237.74 1.255c-1.878-0.102-3.109 1.34-3.588 3.071l-1.7951 6.49 0.6721 0.19 0.9-1.95 11.795 3.27-0.227 2.13 0.672 0.18 1.637-5.91-0.672-0.19-0.873 1.84-4.847-1.34c0.207-0.75 0.384-1.47 0.5-2.12 2.185-0.73 4.479-1.63 6.675-2.65 0.172-0.07 0.559-0.776 0.803-1.198l0.791-1.401-0.537-0.363c-0.86 1.104-2.394 1.639-3.566 2.104l-4.11 1.608c-0.552-1.62-1.684-3.147-3.387-3.618-0.294-0.081-0.575-0.128-0.843-0.143zm-0.397 2.116c0.468-0.023 0.981 0.042 1.535 0.195 2.771 0.77 2.566 1.97 1.893 4.4-0.082 0.3-0.168 0.62-0.248 0.83l-6.215-1.72c0.009-0.34 0.068-0.71 0.178-1.1 0.463-1.68 1.455-2.539 2.857-2.605zm5.242 11.625l-0.111 0.74 2.09 1.14-0.858 5.63-5.542-0.85 0.572-3.75 1.619-0.13 0.094-0.61c-1.115-0.04-3.025-0.33-4.104-0.62l-0.092 0.61 1.465 0.61-0.57 3.74-5.2384-0.8 0.6836-4.49 2.0738-0.24 0.096-0.63-3.1698-0.19-1.4277 9.36 0.6894 0.1 0.6504-1.93 12.102 1.84 0.041 2.04 0.689 0.11 1.575-10.32-3.327-1.36zm230.89 5.21c-0.28 0-0.56 0.01-0.86 0.04-4.11 0.36-7.04 3.15-6.59 8.36 0.38 4.42 3.48 7.06 7.57 6.71 4.69-0.41 7.73-3.29 7.28-8.51-0.36-4.2-3.2-6.64-7.4-6.6zm-73.43 1.11c-0.13-0.01-0.28-0.01-0.41 0l-0.08 0.01c-4.68 0.07-13.52 0.82-17.32 3.13l0.33-0.75 0.17-0.39 0.08-0.19-0.17 0.12-0.35 0.23c-2.77 1.86-4.82 4.34-5.61 6.81-0.4 1.25-0.4 2.05 0.01 2.47 0.31 0.32 0.85 0.37 1.59 0.16 0.37-0.12 4.71 0.09 5.8 0.86 0.12 0.08 0.19 0.16 0.19 0.24 0.07 1.09-0.4 3.06-1.96 3.68l-0.28 0.11c-0.37-0.17-0.67-0.27-0.93-0.32 0.2-0.18 0.45-0.4 0.46-0.42l0.12-0.1 0.11-0.1h-0.15l-0.15-0.01-0.13-0.01c-0.49-0.02-1.09-0.05-1.65 0.05 0.06-0.16 0.16-0.46 0.16-0.46l0.04-0.13 0.05-0.13-0.13 0.05-0.12 0.06-0.13 0.05c-0.47 0.2-1 0.42-1.46 0.71 0.21-0.33 0.41-0.65 0.42-0.65l0.1-0.16 0.1-0.16-0.18 0.07-0.17 0.07-0.46 0.18c-0.14 0.06-0.27 0.23-0.38 0.51-0.06 0.08-0.13 0.17-0.2 0.27l-0.05 0.08c-0.25 0.36-0.62 0.85-0.9 1.12-0.12 0.11-0.25 0.23-0.39 0.36-0.21 0.2-0.43 0.4-0.64 0.6-0.53 0.53-0.88 0.95-0.78 1.78-0.63-0.04-1-1.35-1.11-2.06-0.43-2.79-1.23-3.27-2.87-3.29-0.88-0.01-1.56 0.38-1.83 1.04-0.49 0.21-1.35 0.63-1.68 1.22l-0.17 0.31-0.13 0.24-0.07 0.12 0.13-0.03 0.27-0.06 1.11-0.25c-0.08 0.67-0.21 1.92-0.32 3.3-0.22 2.71-0.24 4.56-0.06 5.51 0.17 0.89 0.41 2.75 0.68 4.72l0.19 1.44c0.33 2.5 0.67 4.91 0.91 5.65 0.22 0.7 0.21 1.66 0.17 2.34-0.04 0.74-0.22 1.73-0.22 1.74l-0.05 0.31-0.03 0.16 0.13-0.1 0.25-0.2c0.67-0.52 1.04-1.09 1.36-1.77l0.99 2.82 0.09 0.26 0.05 0.13 0.07-0.12 0.13-0.24 0.25-0.46 0.76 0.95 0.16 0.21 0.08 0.1 0.03-0.13s0.01-0.07 0.03-0.15l0.1 0.43 0.06 0.22 0.06-0.22 0.13-0.43 0.31-1.04 0.08 0.1 0.19 0.26 0.1 0.12 0.01-0.16 0.03-0.32c0.1-1.33 0.38-5.78-0.41-7.67 0.05-0.03 0.12-0.07 0.18-0.1 0.04 0.01 0.08 0.02 0.12 0.02 0.29 0.02 0.64-0.29 1.1-0.73 0.14-0.13 0.3-0.28 0.36-0.31 0.19-0.1 1.06-0.31 1.43-0.33 0.08 0.06 0.16 0.07 0.17 0.07 0.51 0.08 1.54-0.59 1.77-0.81 0.48-0.47 1.59-0.78 1.71-0.72 0.15 0.13 0.34 0.18 0.55 0.14-0.11 0.52-0.14 0.95-0.08 1.28-0.33-0.54-0.74-0.77-1.21-0.67-0.24 0.05-0.78 0.16-0.9 0.51-0.26 0.12-0.59 0.35-0.76 0.71-0.29 0.1-0.56 0.25-0.81 0.43-1.02 0.73-1.04 1.56-1.07 2.61l-0.01 0.54 0.11 0.03s0.44-0.97 0.44-0.97c0.56-1.08 0.71-1.07 0.72-1.07 0 0 0 0.01 0.01 0.01 0 0.01 0.03 0.04 0.06 0.04l-0.03-0.01c0.03 0.02 0.06 0.03 0.1 0.05-0.21 0.14-0.34 0.33-0.37 0.58-0.06 0.4-0.03 0.7 0.09 0.92-0.16 0.8 0.31 1.16 0.85 1.57l0.3 0.22 0.09-0.08-0.45-0.7c-0.04-0.17 0-0.31 0.04-0.48 0.03-0.09 0.05-0.2 0.07-0.33 0.01 0.01 0.02 0.01 0.03 0.02 0.09 0.01 0.18-0.02 0.28-0.09 0.02 0.02 0.04 0.05 0.04 0.05 0.42 0.48 0.85 0.97 1.41 1.27 0.49 0.26 0.98 0.21 1.4-0.15 0.57-0.5 0.85-1.48 0.63-2.21l0.75-1.44c0.09 0.02 1.08 0.28 1.08 0.28 0.1 0.03 0.18 0.05 0.2-0.02l0.03-0.12c0.32-1.18 0.29-1.85-0.08-2.08-0.01-0.06 0.04-0.26 0.11-0.38 0.09-0.05 0.17-0.13 0.23-0.23 0.1-0.2 0.14-0.48 0.1-0.68 0.04-0.1 0.11-0.21 0.21-0.35 0.07-0.09 0.15-0.2 0.22-0.29-0.38 1.67-0.82 3.85-0.59 4.89l0.03 0.16 0.02 0.08 0.07-0.04 0.14-0.07 0.36-0.18c0.01 0.25 0.05 0.96 0.05 0.96l0.01 0.15 0.01 0.08 0.07-0.03 0.15-0.04 0.45-0.12 0.5 1.03 0.08 0.15 0.03 0.07 0.07-0.05 0.12-0.12 0.32-0.32c0.1 0.18 0.34 0.62 0.34 0.62l0.08 0.14 0.04 0.07 0.06-0.06 0.11-0.11 0.47-0.46c0.33 0.49 0.66 0.78 0.99 0.85 0.2 0.05 0.37 0.02 0.51-0.07 0.06-0.04 0.11-0.09 0.15-0.15 0.22 0.18 0.43 0.31 0.64 0.26 0.18-0.05 0.3-0.21 0.39-0.4 0.1 0.12 0.45 0.55 0.45 0.55l0.1 0.13 0.06 0.06 0.04-0.07 0.09-0.14c0.37-0.55 0.57-1.06 0.6-1.54 0.09 0.07 0.18 0.12 0.26 0.17 0.26 0.14 0.48 0.17 0.64 0.07 0.13-0.08 0.2-0.23 0.2-0.44 0-0.13-0.13-0.71-0.3-1.32 0.21 0.18 0.65 0.59 0.65 0.59l0.21 0.19 0.1 0.09v-0.14-0.28c0-0.57-0.03-1.07-0.1-1.49 0.03 0.05 0.07 0.1 0.1 0.15 0.4 0.62 0.47 0.72 0.53 0.73h0.03l0.02-0.01 0.02-0.02v-0.04c0-0.07-0.14-1.72-0.27-2.25l0.1 0.04 0.27 0.15 0.16 0.09 0.08 0.04 0.01-0.09 0.02-0.19c0.04-0.43 0.05-0.88-0.06-1.28 0.28-0.02 0.5-0.09 0.77-0.21l0.15-0.07 0.08-0.03-0.06-0.07-0.11-0.12c-0.63-0.69-3.85-4.15-5.44-4.91l0.06-0.26 0.44-0.36 0.09-0.08 0.05-0.04-0.04-0.04-0.07-0.1-0.97-1.22 0.22-0.28c1.52-1.32 3.53-3.59 4.19-5.69 0.81-2.63 0.43-8.16 0.34-9.32 0.24-0.24 1.03-0.05 1.68 0.23 1.57 0.67 5.8 2.07 6.89 1.49 0.01-0.01 0.18-0.08 0.29-0.15 0.12-0.1 0.18-0.19 0.17-0.29-0.04-0.27-0.59-0.47-1.18-0.68-0.14-0.05-0.26-0.1-0.39-0.15 0.98 0.16 1.52 0.19 1.73 0.11h0.01c0.1-0.05 0.33-0.19 0.34-0.31 0-0.04-0.01-0.08-0.05-0.1-0.31-0.21-0.64-0.48-1-0.76-0.31-0.25-0.64-0.5-0.95-0.72 2.21 0.43 3.67 0.27 4.34-0.48 0.08-0.08-0.01-0.23-0.03-0.26l-0.01-0.01-0.01-0.01c-1.28-0.72-3.15-1.74-4.79-2.38 0.2-0.02 0.45-0.05 0.45-0.05l0.26-0.03c0.72-0.08 2.06-0.22 2.59-0.54 0.08-0.05 0.15-0.15 0.14-0.26-0.01-0.14-0.16-0.26-0.42-0.36-2.85-0.85-5.12-1.37-6.77-1.54 1.33-0.54 2.04-1.01 2.1-1.38v-0.02l-0.01-0.02-0.13-0.25-0.01-0.01-0.01-0.01c-0.09-0.06-0.21-0.09-0.34-0.1zm-0.84 0.7c-0.75 0.38-1.94 0.84-2.75 1.1-0.22 0.03-0.39 0.08-0.54 0.13l-0.08 0.03c-0.18 0.08-0.29 0.3-0.23 0.48 0.04 0.12 0.19 0.25 0.45 0.19 0.06-0.02 0.25-0.08 0.52-0.16 0.89-0.14 2.87-0.04 7.31 1.2-1.38 0.2-3.51 0.41-3.53 0.42l-0.12 0.01h-0.06l0.01 0.06v0.12l0.01 0.31 0.01 0.12v0.06h0.06 0.12c1.1 0.01 4.41 1.77 5.59 2.41-1.3 0.4-4.56-0.42-5.74-0.78l-0.12-0.04-0.06-0.01-0.01 0.05-0.04 0.12-0.1 0.3-0.03 0.12-0.02 0.06 0.06 0.01 0.11 0.04c1.04 0.34 2.35 1.24 3.14 1.84-0.64-0.09-1.31-0.21-2-0.35l-0.2-0.04-0.2-0.04-0.1-0.02 0.03 0.1 0.05 0.19 0.08 0.25c0.08 0.28 0.55 0.65 1.51 1.2-1.43-0.19-3.78-0.92-5.23-1.54-0.06-0.02-1.39-0.59-2.17-0.27-0.04 0-0.08 0-0.13 0.01-4.75 1.24-6.11 0.85-6.42 0.69-0.02-0.02-0.05-0.05-0.06-0.07-0.03-0.03-0.06-0.07-0.11-0.07-0.02-0.01-0.04 0-0.05 0.01-0.02 0.02-0.03 0.04-0.02 0.07 0.01 0.05 0.06 0.1 0.16 0.16 0.81 0.87 3.07 0.58 3.81 0.48 0.96-0.12 1.87-0.32 2.37-0.43 0.18 2.38 0.32 6.86-0.33 8.93-0.55 1.79-2.45 4.09-4.03 5.44h-0.01l-0.49 0.63-0.06 0.08-0.03 0.04 0.03 0.03 0.06 0.08 0.91 1.14-0.23 0.19-0.02 0.01-0.01 0.03-0.01 0.04-0.18 0.86-0.02 0.11-0.01 0.06 0.05 0.02 0.11 0.03c0.85 0.23 2.6 1.72 4.94 4.2-0.17-0.02-0.31-0.06-0.31-0.06l-0.12-0.04-0.06-0.01-0.02 0.05-0.03 0.12-0.1 0.3-0.04 0.11-0.02 0.06 0.06 0.02 0.11 0.04c0.09 0.03 0.19 0.21 0.23 0.62l-0.84-0.29-0.05-0.01-0.02 0.05-0.05 0.1-0.01 0.02 0.01 0.02c0 0.01 0.25 0.72 0.38 1.15-0.17-0.14-0.35-0.27-0.46-0.36-0.05-0.04-0.1-0.07-0.15-0.1l-0.02-0.02-0.02 0.01c-0.25 0.04-0.34 0.06-0.38 0.06l-0.07-0.05v0.11l-0.02 0.34v0.02l0.01 0.02c0 0.01 0.52 0.75 0.64 1.46l-1.26-0.56-0.09-0.05 0.01 0.11 0.01 0.16v0.01l0.01 0.01c0.16 0.26 0.51 1.31 0.66 1.96-0.37-0.18-1.06-0.36-1.09-0.37l-0.04-0.01-0.02 0.02-0.08 0.07-0.04 0.04 0.03 0.04 0.06 0.09c0.23 0.38 0.13 0.86-0.01 1.22-0.15-0.19-0.52-0.64-0.52-0.64l-0.14-0.17-0.07-0.09-0.04 0.11-0.07 0.21-0.05 0.16c-0.06 0.18-0.12 0.36-0.2 0.51-0.23-0.18-0.56-0.5-0.73-0.66l-0.09-0.08-0.3-0.27-0.14-0.14 0.04 0.19 0.09 0.4 0.04 0.16c0.08 0.28 0.09 0.4 0.08 0.46-0.13-0.06-0.41-0.28-0.82-1.07l-0.07-0.15-0.05-0.07-0.05 0.06-0.12 0.11-0.46 0.46c-0.06-0.12-0.34-0.61-0.34-0.61l-0.07-0.14-0.04-0.07-0.06 0.06-0.12 0.11-0.29 0.29c-0.06-0.13-0.38-0.79-0.38-0.79l-0.05-0.09-0.02-0.05-0.05 0.02-0.1 0.02-0.26 0.08-0.06-1.11-0.01-0.19-0.01-0.1-0.08 0.05-0.17 0.09-0.39 0.19c0.05-1.16 0.57-3.58 0.88-4.86l0.02-0.08 0.01-0.04-0.04-0.02-0.06-0.05-0.44-0.34-0.05-0.04-0.03-0.03-0.04 0.02-0.06 0.03s-0.07 0.03-0.08 0.04l-0.02-0.22v-0.06h-0.06c-2 0.11-3.75-1.34-4.86-2.58-1.23-1.38-1.98-2.79-1.98-2.81l-0.01-0.01-0.31-0.33-0.28-0.29 0.18 0.36c1.03 2.12 3.78 6.03 6.96 6.1-0.25 0.12-0.5 0.23-0.5 0.23l-0.15 0.07-0.07 0.03 0.05 0.07 0.1 0.12 0.23 0.27c-0.06 0.09-0.12 0.17-0.18 0.24-0.35 0.5-0.35 0.7-0.32 0.9 0.01 0.06 0.01 0.1-0.03 0.19-0.24 0.15-0.4 0.54-0.42 0.84s0.08 0.53 0.29 0.67c0.02 0.04 0.04 0.28-0.08 0.87-0.12-0.03-0.97-0.26-0.97-0.26l-0.1-0.02-0.04-0.01-0.03 0.04-0.04 0.09-1.04 1.98-0.02 0.05-0.02 0.02 0.01 0.03 0.02 0.05c0.17 0.41 0.15 0.89-0.04 1.25-0.02 0.04-0.05 0.09-0.09 0.14 0.01-0.08 0.02-0.39 0-0.55-0.02-0.24-0.08-0.38-0.2-0.46-0.13-0.1-0.28-0.07-0.4-0.04-0.15 0.03-0.18 0.04-0.24-0.12-0.17-0.47-0.83-0.42-1.05-0.41-0.3 0.02-0.64 0.09-0.77 0.12l-0.03 0.01-0.01 0.02s-0.03 0.05-0.03 0.05l-0.07 0.13c-0.08-0.06-0.16-0.07-0.21-0.06-0.1 0-0.18 0.05-0.25 0.11 0-0.05 0-0.09 0.01-0.13 0.01-0.07 0.11-0.18 0.55-0.26l0.09-0.02c0.33-0.04 0.7-0.1 0.83-0.33 0.03-0.07 0.07-0.19 0-0.34-0.15-0.31-0.55-0.31-0.94-0.31-0.24 0.01-0.49 0.01-0.62-0.06-0.03-0.02-0.07-0.04-0.11-0.05 0.24-0.17 0.52-0.3 0.81-0.38l0.07-0.02 0.04-0.01 0.01-0.04 0.01-0.07c0.01-0.01 0.01-0.02 0.02-0.03 0.66-0.24 1.51 0.67 1.52 0.68l0.08 0.09 0.02-0.12c0.04-0.18-0.04-0.41-0.2-0.64-0.19-0.24-0.52-0.52-0.94-0.59l0.01-0.02 0.12-0.1 0.15-0.12c0.02-0.01 0.11-0.07 0.48-0.14 0.06-0.02 0.13 0 0.2 0.05 0.38 0.26 0.69 1.34 0.77 1.79l0.02 0.1v0.05h0.05l0.11 0.01h0.31l0.1 0.01h0.05l0.01-0.05 0.02-0.1 0.33-1.46 0.01-0.08 0.01-0.04-0.03-0.02-0.06-0.05c-0.5-0.37 0.06-2.08 0.25-2.64l0.04-0.14 0.18-0.52-0.11-0.06-0.4 0.42c-0.53 0.62-0.8 0.77-0.86 0.78-0.57-0.47-2.14 0.29-2.62 0.75-0.24 0.23-0.78 0.52-1.14 0.61-0.51-0.21-2 0.32-2.07 0.35-0.26 0.14-0.48 0.36-0.69 0.57-0.07 0.06-0.14 0.13-0.2 0.19 0.65-1.35 0.28-2.51-0.22-4.07l-0.16-0.51c-0.19-0.64-0.83-1.63-0.98-1.67-0.03 0-0.05 0.01-0.07 0.03-0.03 0.03-0.02 0.09 0 0.13 0.01 0.03 0.86 2.41 1.1 3.9 0.21 1.36-0.94 2.78-0.95 2.8-0.02 0.03-0.04 0.06-0.05 0.08l-0.06 0.04-0.04 0.04 0.03 0.04 0.04 0.08c0.01 0.07 0.05 0.15 0.11 0.21 0.63 1.4 0.6 4.39 0.51 6.16l-0.01-0.01-0.07-0.09-0.03 0.11-0.07 0.23-0.07 0.21-0.07-0.29-0.12-0.51h-0.12l-0.12 0.52-0.21 0.97c-0.12-0.16-0.56-0.72-0.56-0.72l-0.12-0.15-0.05-0.07-0.05 0.08-0.09 0.16-0.08 0.15-1.06-3-0.11-0.31-0.06-0.16-0.06 0.15-0.12 0.31c-0.16 0.43-0.36 0.94-0.62 1.43 0.07-1.09 0.01-1.98-0.2-2.64-0.22-0.7-0.55-3.07-0.88-5.54l-0.19-1.43c-0.27-1.99-0.52-3.86-0.68-4.76-0.32-1.71 0.14-6.66 0.46-9.31l0.02-0.18 0.01-0.08-0.08 0.02-0.05 0.01c0.11-0.05 0.23-0.11 0.35-0.15l0.06-0.02 0.03-0.01 0.01-0.04 0.02-0.06c0.15-0.71 0.91-0.78 1.23-0.78 1.14 0.02 1.81 0.15 2.21 2.71 0.19 1.26 0.59 2.09 1.17 2.45 0.11 0.07 0.23 0.12 0.34 0.15-0.35 0.89-0.1 1.55 0.79 2.06l0.1 0.06 0.09 0.05v-0.11-0.1c0-0.51 0.07-1.02 0.56-1.31 0.2 0.25 0.37 0.51 0.44 0.82 0.02 0.08 0.05 0.43 0.07 0.65l0.02 0.17 0.01 0.18 0.1-0.15 0.1-0.15c0.22-0.33 0.57-0.89 0.72-1.45 0.4 0.36 0.74 0.27 1.04 0.18 0.14-0.03 0.27-0.07 0.4-0.07 0.04 0.07 0.04 0.3-0.21 1.04l-0.04 0.13-0.03 0.1-0.03 0.09 0.1-0.02 0.09-0.01c0.37-0.05 0.78-0.16 1.04-0.5 0.05 0 0.28 0.02 0.28 0.02h0.06 0.05l0.01-0.06 0.01-0.05c0.02-0.19 0.1-0.43 0.15-0.48 0.18 0.01 0.54 0.13 0.7 0.19l0.04 0.01 0.27 0.1c0.43 0.15 0.6 0.21 1.21 0.26 0.22 0.02 0.23 0.02 0.25-0.02l0.01-0.04-0.03-0.03-0.14-0.13c-1.16-1.01-1.57-1.65-1.46-1.84 0.06-0.1 0.12-0.16 0.17-0.15 0.04 0.01 0.06 0.04 0.06 0.06l0.08 0.44 0.03 0.17 0.03 0.18 0.08-0.16 0.09-0.16 0.24-0.45v-0.01l0.01-0.01c0.05-0.25-0.03-0.53-0.21-0.74 0.21-0.02 0.41-0.05 0.44-0.05l0.11-0.01 0.11-0.01-0.07-0.09-0.07-0.09-0.31-0.37c0.05-0.06 0.11-0.12 0.16-0.16 0.29-0.28 0.36-0.26 0.69-0.19 0.07 0.01 0.15 0.03 0.24 0.05l0.2 0.04 0.2 0.03-0.15-0.14-0.15-0.14-0.14-0.14c-0.3-0.29-0.64-0.61-1.04-0.82l0.2-0.17c0.21 0.07 0.54 0.2 0.71 0.3 0.27 0.15 0.63 0.31 0.82 0.19 0.08-0.05 0.12-0.12 0.11-0.21 0-0.16-0.18-0.34-0.54-0.55 1.41-0.97 1.83-2.92 1.77-4.02-0.05-0.75-1.14-1.26-3.34-1.56-1.53-0.21-3.19-0.25-3.54-0.15-0.06 0.02-0.14 0.04-0.22 0.06-0.33 0.08-0.56 0.06-0.68-0.06-0.31-0.33 0.04-1.4 0.15-1.76 0.77-2.4 2.65-4.31 3.83-5.32l-0.11 0.24-0.04 0.09-0.02 0.05 0.05 0.03 0.08 0.05 0.26 0.18 0.09 0.06 0.04 0.03 0.04-0.04 0.07-0.08c1.15-1.19 3.93-2.2 8.04-2.89 3.45-0.59 7.13-0.84 9.54-0.88zm75.87 0.29c2.95 0.15 4.78 1.8 5.02 4.49 0.26 2.97-2.18 5.96-6.46 6.33-3.32 0.29-6.49-0.68-6.82-4.48-0.31-3.56 2.41-5.92 6.93-6.31 0.47-0.04 0.91-0.05 1.33-0.03zm-245.01 4.14l-0.4102 6.02 0.6973 0.05 0.4843-1.99 12.229 0.83c2.069 0.15 2.938 0.68 4.763 2.28l0.545-0.45c-1.149-1.26-3.306-3.11-4.345-3.57-0.38-0.17-0.807-0.26-1.217-0.29l-11.838-0.8-0.2129-2.04-0.6953-0.04zm148.88 10.8c-0.49 0.61-0.48 0.71-0.39 0.79 0.09 0.09 0.17 0.12 0.88-0.49 0.04-0.03 0.22-0.13 0.97-0.15-0.1 0.12-0.2 0.26-0.18 0.4 0.01 0.07 0.04 0.15 0.16 0.22 0.06 0.03 0.13 0.04 0.2 0.04 0.35-0.04 0.52-0.02 0.79 0.08-0.13 0.11-0.64 0.54-0.64 0.54l-0.16 0.14-0.15 0.14 0.2-0.03 0.21-0.03 0.08-0.01c0.57-0.08 0.62-0.09 1.01 0.22-0.08 0.06-0.17 0.13-0.26 0.21-0.21 0.19-0.44 0.49-0.44 0.5l-0.03 0.04-0.04 0.04 0.04 0.03 0.03 0.04 0.03 0.05c-0.15 0.03-0.33 0.08-0.42 0.18-0.08 0.09-0.11 0.19-0.1 0.28 0.03 0.1 0.1 0.17 0.2 0.22-0.13 0.08-0.24 0.2-0.33 0.37-0.19 0.34-0.05 0.8 0.43 1.4h-0.01c-0.33-0.13-0.89-0.33-1.21 0.03-0.04-0.03-0.09-0.05-0.13-0.04-0.15 0.01-0.22 0.16-0.3 0.32-0.02 0.05-0.05 0.1-0.07 0.14 0.05-0.34 0.02-0.57-0.1-0.7-0.16-0.18-0.44-0.14-0.72-0.11-0.43 0.06-0.88 0.12-1.1-0.5l-0.02-0.05-0.03-0.06-0.05 0.02-0.06 0.02s-0.22 0.08-0.27 0.1c0.08-0.12 0.14-0.2 0.14-0.2l0.1-0.13-0.16 0.03c-0.03 0.01-0.64 0.12-0.92 0.5l-0.04-0.06-0.01-0.01h-0.02l-0.07-0.02-0.02-0.01-0.02 0.01c-0.58 0.23-0.93 0.59-1.1 1.13-0.32-0.57 0.26-1.41 0.33-1.51v-0.01l0.01-0.01 0.01-0.06v-0.01-0.01c-0.06-0.26-0.06-0.53-0.01-0.78 0.07-0.3 0.93-1.09 1.35-1.47 0.11-0.09 0.2-0.17 0.26-0.23 0.16-0.16 0.36-0.4 0.59-0.69 0.03 0.05 0.07 0.12 0.14 0.14 0.17 0.04 0.31-0.16 0.42-0.36 0.03-0.05 0.18-0.23 1-0.63zm87.91 0.01l-0.41 10.19 3.98 1.09 0.03-0.7-2.72-1.3 0.21-5.21 12.02 0.49 0.26 2.02 0.7 0.03 0.24-6.03-0.69-0.03-0.43 2-12.23-0.5-0.26-2.02-0.7-0.03zm-89.66 2.7l-0.27 0.04c-0.69 0.11-0.36 0.84-0.83 1.13l0.06 0.2c0.21-0.02 0.53-0.09 0.71-0.18 0.08-0.05 0.1-0.12 0.14-0.2 0.11-0.08-0.02-0.44-0.07-0.51-0.08-0.11 0.23-0.44 0.26-0.48zm-0.48 0.38c-0.01 0.07 0 0.15 0.04 0.22 0.04 0.05 0.07 0.2 0.08 0.27l-0.01 0.01c-0.01 0.03-0.03 0.06-0.04 0.09 0-0.07-0.01-0.17-0.07-0.2-0.04-0.02-0.08-0.03-0.13-0.03 0.03-0.13 0.06-0.26 0.13-0.36zm0.1 1.55c0.03 0.15 0.01 0.34-0.06 0.56-0.04-0.11-0.06-0.28 0-0.43 0.02-0.05 0.04-0.09 0.06-0.13zm10 1.9c-0.16 0.04-0.38 0.21-0.65 0.69-0.04 0.08-0.09 0.17-0.14 0.28-0.1 0.2-0.2 0.42-0.29 0.53-0.14 0.09-0.28 0.39-0.42 0.72-0.02 0.04-0.03 0.09-0.05 0.14-0.04 0.1-0.08 0.2-0.13 0.3-0.01 0.05-0.04 0.22 0.06 0.26 0.09 0.03 0.19-0.07 0.25-0.18 0.02-0.14 0.65-0.86 0.99-0.93 0.43-0.09 0.68-0.46 0.77-0.86 0.02 0.07 0.05 0.15 0.11 0.23 0.24 0.4 0.61 0.4 0.97 0.4 0.21 0 0.42 0 0.61 0.09 0.04 0.02 0.03 0.03 0.03 0.05-0.08 0.27-1.36 0.91-1.53 0.89h-0.13l-0.19 0.08c0.05-0.1 0.03-0.19 0.04-0.29 0.16-0.06 0.33-0.14 0.52-0.25 0.14-0.09 0.24-0.15 0.24-0.15l0.05-0.04-0.03-0.05-0.12-0.17-0.04-0.05-0.05 0.03c-0.23 0.16-0.47 0.29-0.69 0.37-0.15 0.06-0.24 0.13-0.27 0.21-0.03 0.09 0.01 0.17 0.04 0.25-0.04 0.06-0.35 0.24-1.07 0.57l-0.26 0.13-0.11 0.06c-0.04 0.03-0.08 0.07-0.1 0.12-0.03 0.07-0.02 0.16 0.03 0.29-0.02 0.06-0.19 0.28-1.36 0.65l-0.16 0.04 0.15 0.07 0.25 0.11c0.42 0.19 1.2-0.21 1.65-0.48 0.22 0.14 0.63 0.01 0.82-0.05 0.13-0.04 0.25-0.09 0.36-0.12-0.04 0.09 0 0.17 0.04 0.26-0.05 0.06-0.36 0.23-1.08 0.57l-0.26 0.12-0.12 0.05 0.12 0.06 0.21 0.1c0.02 0 0.04 0.01 0.09 0.02 0.26 0.02 0.79-0.15 1.61-0.54 0.04 0.01 0.08 0.01 0.12 0 0.46-0.07 1.73-0.76 1.8-1.18 0.02-0.11 0-0.2-0.06-0.27-0.17-0.21-0.63-0.23-1-0.24-0.16-0.01-0.31-0.01-0.38-0.04l-0.06-0.02-0.02 0.07-0.06 0.2-0.02 0.05 0.06 0.02c0.18 0.05 0.37 0.06 0.56 0.06 0.21 0 0.43 0 0.61 0.08 0.04 0.02 0.04 0.03 0.03 0.05-0.08 0.28-1.35 0.92-1.53 0.89h-0.13l-0.19 0.08c0.05-0.1 0.04-0.19 0.04-0.28 0.16-0.06 0.34-0.15 0.53-0.26 0.13-0.08 0.23-0.15 0.24-0.15l0.04-0.03-0.03-0.06-0.12-0.17-0.03-0.05-0.05 0.03c-0.19 0.13-0.39 0.24-0.57 0.32l-0.09-0.18-0.02-0.05-0.06 0.02c-0.36 0.17-1.07 0.43-1.21 0.37-0.12-0.06-0.26-0.02-0.44 0.05 0.06-0.09 0.07-0.2 0.07-0.35 0.05-0.02 0.11-0.04 0.16-0.06 0.26 0.01 0.78-0.17 1.58-0.54h0.12c0.46-0.07 1.73-0.76 1.8-1.19 0.02-0.1 0-0.18-0.06-0.25-0.12-0.17-0.39-0.21-0.61-0.23-0.09-0.01-0.19-0.01-0.28-0.01-0.36-0.01-0.68-0.01-0.8-0.42l-0.02-0.06-0.05 0.02-0.23 0.06c0.01-0.07 0.02-0.13 0.02-0.2 0.01-0.35-0.1-0.6-0.29-0.65-0.04-0.01-0.08-0.02-0.13-0.01zm0.07 0.35c0.03 0.02 0.06 0.12 0.04 0.32-0.04 0.29-0.22 0.74-0.56 0.81-0.11 0.03-0.22 0.09-0.32 0.15 0.08-0.13 0.16-0.28 0.24-0.44 0.14-0.29 0.29-0.59 0.48-0.78 0.06-0.05 0.1-0.07 0.12-0.06zm-156.5 5.43l-0.6875 0.12 0.7988 4.62 0.6875-0.12-0.0117-2.12 10.495 1.39-7.405 3.82c-0.67 0.35-1.3433 0.67-2.0193 0.98l-0.6836-1.91-0.6875 0.12 0.9434 5.47 0.6875-0.12 0.0137-1.98c0.7798 0.05 1.6138 0.18 2.4488 0.3l8.106 1.18-9.52 4.51-0.6696-1.83-0.6875 0.12 0.9411 5.45 0.69-0.12 0.074-1.62 12.603-6.06-0.173-1.01-11.08-1.75 9.892-5.11-0.181-1.05-13.995-1.98-0.5797-1.3zm241.41 0.94c-3.42-0.02-6.23 2.04-7 6.56-0.74 4.37 1.59 7.7 5.63 8.39 4.63 0.79 8.31-1.22 9.19-6.38 0.76-4.44-1.71-7.65-6.33-8.44-0.5-0.08-1-0.13-1.49-0.13zm-81.83 1.61s1.18 2.45 1.79 2.81c0.6 0.36-1.79-2.81-1.79-2.81zm81.51 0.65c0.75-0.02 1.54 0.04 2.38 0.18 3.68 0.63 5.53 2.88 5.01 5.91-0.5 2.94-3.62 5.22-7.85 4.5-3.28-0.56-6.11-2.29-5.46-6.06 0.48-2.86 2.71-4.45 5.92-4.53zm-84 1.53s-0.25 2.7 0.09 3.32c0.33 0.63-0.09-3.32-0.09-3.32zm1.73 0.63s0.37 2.69 0.84 3.22c0.46 0.53-0.84-3.22-0.84-3.22zm-8.95 3.1c0.46-0.03 0.55 0.12 0.65 0.27 0.04 0.08 0.1 0.16 0.17 0.22-0.03 0.07-0.04 0.2-0.05 0.41 0 0.08-0.01 0.17-0.02 0.23l-1.32-0.89c0.02-0.01 0.03-0.03 0.04-0.05 0.05-0.04 0.09-0.09 0.12-0.14 0.15-0.03 0.29-0.04 0.41-0.05zm1.29 0.94c0.07 0.01 0.17 0.02 0.31 0.05l0.04 0.01c-0.11 0.1-0.26 0.19-0.46 0.23h-0.04c0-0.04 0.01-0.08 0.01-0.08l0.02-0.2c0.02-0.01 0.05-0.01 0.12-0.01zm86.31 8.55c-3.54-0.01-6.1 2.62-7.34 6.41-0.78 2.36-0.81 4.08-0.98 6.05l0.66 0.22 0.38-1.15 2.61 0.86-0.26 1.92 0.66 0.22 1.82-5.52-0.67-0.22-0.95 1.78-3.22-1.05c0.14-0.74 0.23-1.49 0.46-2.19 1.39-4.21 5.19-5.98 9.38-4.6 3.57 1.17 4.89 3.59 3.65 7.37-1.17 3.55-3.06 4.45-4.73 3.87l-0.23 0.69 3.46 0.92c0.54-1.12 1.87-3.65 2.3-4.97 1.95-5.91-1.13-9.08-4.41-10.16-0.91-0.3-1.78-0.44-2.59-0.45zm-219.72 1.49l-3.576 0.32 0.236 0.7 2.383 0.06 1.815 5.39-5.311 1.79-1.213-3.6 1.381-0.85-0.197-0.59c-1.011 0.47-2.839 1.09-3.928 1.33l0.195 0.58 1.584-0.12 1.205 3.58-5.017 1.69-1.449-4.3 1.73-1.17-0.203-0.6-2.904 1.28 3.019 8.97 0.662-0.22-0.312-2.02 11.593-3.91 0.973 1.8 0.662-0.23-3.328-9.88zm107.74 1.57v68.41-68.41zm-18.99 7.55l-14.343 2.29c-0.764 0.05-1.427 0.31-2.091 0.61-1.888 1.13-1.939 3.22-1.786 5.21 0.052 0.92 0.869 1.68 1.633 2.04 2.041 0.26 3.877-0.51 5.767-0.66-0.77 4.74-2.25 9.18-2.6 14.13 0.1 4.59-1.125 10.15 2.91 13.16 2.55 1.28 4.84-0.51 7.19-0.91l12.25-3.83c0.86-0.15 1.68-1.02 2.14-1.79 0.35-1.53 0.1-3.21-0.51-4.59l-0.31-0.36-2.04 0.16c-0.92-1.07-1.33-2.4-1.58-3.78-0.56-2.96 0.51-5.71 1.02-8.47 0.66-3.21 0.87-7.35-0.92-10.1-1.63-2.25-4.03-3.22-6.73-3.11zm-83.979 4.08l-11.971 6.04-1.217-1.64-0.625 0.32 2.348 4.65 0.623-0.31-0.594-1.95 9.037-4.56-5.433 14.03 1.693 3.35 0.623-0.31-0.596-1.96 10.926-5.51 1.217 1.64 0.625-0.31-2.387-4.73-0.623 0.31 0.631 2.03-9.603 4.84c1.182-3.12 5.031-13.09 5.787-15.01l-0.461-0.92zm203.82 2.19l-3.01 6.12 0.63 0.31 1.37-2.01 4.44 2.19 4.7 6.98-0.41 1.63 0.62 0.31 2.25-4.57-0.63-0.31-1.2 1.65-3.89-5.54 6.96-0.71-0.58 1.96 0.63 0.31 2.76-5.62-0.63-0.31-1.2 1.65-8.45 0.77-4.48-2.19 0.74-2.31-0.62-0.31zm-140.86 60.65l-0.149 0.43 1.274 0.68-2.58 7.43-1.422-0.26-0.147 0.43 3.918 1.36 0.147-0.43-1.274-0.67 1.225-3.53 2.519 0.87-0.107 1.04 0.373 0.13c0.159-0.7 0.566-1.87 0.875-2.52l-0.375-0.13-0.561 0.85-2.507-0.87 1.117-3.22 2.818 0.98-0.15 1.4 0.424 0.15 0.543-2.05-5.961-2.07zm77.988 0.3l-0.31 0.01c-0.4 0.48-1.11 0.95-1.86 1.32l0.14 0.37c0.47-0.17 0.92-0.31 1.37-0.24l2.57 7.09-1.31 0.71 0.14 0.37 3.81-1.37-0.14-0.37-1.45 0.28-2.96-8.17zm-6.44 2.18c-0.3-0.01-0.61 0.04-0.91 0.13-1.36 0.39-2.19 1.77-1.79 3.15 0.29 1.01 1.11 1.62 2.11 1.78-0.85 0.69-1.41 1.72-1.09 2.85 0.47 1.58 1.79 1.93 3.24 1.51 1.44-0.42 2.6-1.58 2.1-3.3-0.35-1.22-1.4-1.64-2.77-1.88 0.86-0.69 1.38-1.62 1.06-2.73-0.29-1.01-1.07-1.48-1.95-1.51zm-0.54 0.46c0.76-0.07 1.39 0.39 1.65 1.29 0.26 0.86 0.06 1.79-0.6 2.42-0.94-0.21-2.14-0.51-2.45-1.56-0.26-0.91 0.14-1.81 1.06-2.08 0.12-0.03 0.23-0.06 0.34-0.07zm-6.83 1.36c-0.15 0.01-0.3 0.03-0.46 0.07-1.38 0.3-2.3 1.63-1.99 3.03 0.22 1.02 1 1.69 1.99 1.92-0.89 0.63-1.52 1.62-1.27 2.77 0.36 1.61 1.65 2.04 3.13 1.72 1.47-0.33 2.7-1.41 2.32-3.16-0.28-1.25-1.29-1.72-2.65-2.06 0.9-0.63 1.49-1.52 1.24-2.66-0.27-1.19-1.24-1.7-2.31-1.63zm-0.11 0.43c0.76-0.03 1.37 0.48 1.57 1.39 0.19 0.88-0.07 1.79-0.76 2.37-0.93-0.26-2.11-0.64-2.35-1.71-0.2-0.93 0.26-1.8 1.2-2.01 0.11-0.03 0.23-0.04 0.34-0.04zm-7.13 0.91c-0.48 0.4-1.27 0.72-2.08 0.94l0.06 0.39c0.5-0.08 0.97-0.12 1.4 0.02l1.15 7.48-1.41 0.44 0.06 0.39 4.01-0.61-0.06-0.4h-1.49l-1.33-8.6-0.31-0.05zm-48.47 0.1c-1.606-0.15-2.729 0.81-3.189 2.48-0.501 1.82 0.158 3.45 2.069 3.98 2.05 0.56 3.43-0.45 3.97-2.41 0.53-1.92-0.18-3.38-2.14-3.92-0.24-0.07-0.48-0.11-0.71-0.13zm39.72 0c-0.53 0.27-1.31 0.52-1.94 0.64l0.03 0.4c0.38-0.03 0.79 0.01 1.16 0.17l0.18 3.1c-0.34-0.14-0.9-0.31-1.45-0.28-1.7 0.1-2.94 1.42-2.81 3.54 0.07 1.22 1.12 3.17 2.57 3.08 0.64-0.03 1.29-0.58 1.99-1.16l0.05 0.98 0.11 0.06c0.66-0.25 1.34-0.49 2.02-0.67l-0.03-0.4c-0.93-0.05-1.03-0.05-1.05-0.27l-0.52-9.12-0.31-0.07zm-13.47 0.24c-0.56 0.2-1.36 0.36-2 0.4l-0.02 0.4c0.38 0.02 0.78 0.11 1.13 0.31l-0.2 3.09c-0.31-0.18-0.84-0.41-1.39-0.45-1.7-0.1-3.09 1.05-3.22 3.18-0.08 1.21 0.73 3.27 2.18 3.36 0.63 0.04 1.35-0.42 2.11-0.91l-0.06 0.97 0.1 0.07c0.68-0.16 1.38-0.32 2.08-0.42l0.02-0.4c-0.92-0.16-1.02-0.16-1.01-0.39l0.58-9.1-0.3-0.11zm-26.25 0.17c0.16 0 0.32 0.03 0.49 0.07 1.66 0.46 1.46 2.36 1.11 3.64-0.34 1.23-1.05 2.38-2.52 1.98-1.484-0.41-1.356-2.46-1.042-3.61 0.275-1 0.882-2.08 1.962-2.08zm4.43 0.89l-0.08 0.39 1.05 0.44-0.81 3.99c-0.25 1.21 0.39 1.87 1.55 2.11 0.83 0.17 1.53-0.32 2.44-0.65l-0.2 0.96 0.09 0.14c0.73-0.08 1.48-0.16 2.23-0.14l0.07-0.32-1.1-0.39 1.07-5.24-2.3-0.47-0.08 0.38 1.16 0.47-0.87 4.24c-0.66 0.22-1.15 0.41-1.86 0.26-0.79-0.16-1.2-0.68-1.05-1.41l0.89-4.31-2.2-0.45zm58.51 0.62c0.93 0.29 2.63 0.47 2.96 1.61 0.31 1.05-0.16 1.89-1.2 2.19-1.13 0.33-2.08-0.2-2.41-1.33-0.23-0.81-0.15-1.77 0.53-2.37l0.12-0.1zm-48.59 1.09c-0.57 0.17-1.38 0.27-2.02 0.27l-0.05 0.39c0.38 0.05 0.78 0.17 1.11 0.39l-0.61 4.62-1.14 0.08-0.06 0.39 3.34 0.44 0.06-0.39-1.09-0.37 0.57-4.31c0.54-0.29 1.15-0.46 1.77-0.38 1.36 0.18 1.17 1.34 1.03 2.42l-0.35 2.67-1.15 0.07-0.05 0.4 3.34 0.44 0.05-0.4-1.08-0.36 0.49-3.73c0.17-1.29-0.23-2.12-1.97-2.35-0.13-0.02-0.36 0.01-0.5 0.04-0.16 0.05-0.84 0.41-1.53 0.79l0.13-0.99-0.29-0.13zm41.34 0.72c0.91 0.35 2.6 0.64 2.86 1.8 0.23 1.07-0.29 1.88-1.35 2.11-1.15 0.25-2.06-0.34-2.32-1.49-0.18-0.83-0.04-1.78 0.68-2.33l0.13-0.09zm-24.68 0.5c-1.62-0.01-2.93 1.16-2.94 3.26-0.01 2.14 1.28 3.32 2.92 3.33 0.68 0 1.15-0.09 1.24-0.14l1.56-1.56-0.3-0.29c-0.51 0.54-1.15 1.12-1.95 1.12-1.72-0.01-2.39-1.44-2.39-3.17l3.73 0.01c0.4 0.01 0.53-0.02 0.53-0.52 0.01-1.11-1.02-2.04-2.4-2.04zm-7.43 0.15c0.82 0.05 1.55 0.65 1.49 1.52l-0.2 3.28c-0.39 0.31-0.91 0.55-1.4 0.52-1.09-0.06-1.87-1.41-1.77-3.02 0.07-1.08 0.62-2.38 1.88-2.3zm13.99 0.06c0.81-0.05 1.61 0.46 1.66 1.33l0.19 3.29c-0.35 0.35-0.83 0.65-1.32 0.68-1.1 0.06-2.03-1.18-2.12-2.79-0.06-1.08 0.32-2.44 1.59-2.51zm-6.76 0.18c1.08 0 1.51 0.8 1.45 1.77v0.01l-3.08-0.01c0.07-0.88 0.67-1.77 1.63-1.77z" transform="matrix(.8 0 0 -.8 330.32 609.45)" fill="#fff"/><path d="m487.5 569.8v-102.93c0.0207-22.349-33.408-41.63-51.151-49.154-18.392 7.6658-51.191 26.092-51.191 49.226l-0.0005 102.86h102.34z" stroke="#000" stroke-miterlimit="3.8636" stroke-width="1.2939" fill="none"/><g><path d="m436.27 474.89h45.925v-7.9137c0-24.924-45.931-44.44-45.931-44.44"/><path d="m390.08 477.4h45.061v42.347h-45.061v-42.347z"/><path d="m437.99 522.29h44.292v42.347h-44.292v-42.347z"/></g><g><path d="m411.74 506.67c0.1827 0.0366 0.2488-0.0839 0.3423-0.1422 0.5318-0.2878 1.2332-0.1413 1.7814-0.0294 0.1273-0.1495 0.2266-0.3293 0.295-0.5424-0.9198-0.0318-1.9019-0.0361-2.8232-0.007 0.0502 0.309 0.2903 0.471 0.4045 0.7207zm-0.8894-1.5374c1.2881 0.0145 2.5773-0.002 3.836-0.0198 1.2549-1.6434 2.8035-2.9398 4.4975-3.9855l-13.751 0.0723c1.9641 0.8663 3.9074 2.3454 5.4174 3.933zm-13.738-4.9266 0.0207 0.2768c1.3807 0.0173 2.7928 0.005 4.2044-0.006 0.2372-0.6369 0.469-1.1195 0.7024-1.6334 0.1658-0.3621 0.3915-0.6913 0.5269-1.0553-0.5558-0.7559-1.722-0.7656-2.6173-0.6132-1.4559 0.3789-2.5701 1.5369-2.8371 3.0314zm11.16-9.3686c0.1562 0.8031 0.8065 1.5316 1.5292 1.925 0.9642 0.4946 2.0268-0.0521 3.1254 0.1403 0.8625-0.0926 1.6758 0.3341 2.4245-0.008 0.8731-0.3987 1.455-1.238 1.4565-2.1584l-8.4098 0.0135-0.1258 0.0878zm-2.4877-1.7129c0.8182 0.335 1.6016 0.7308 2.4829 0.9757l8.7183-0.0631c1.0919-0.5144 2.2142-1.0274 3.2773-1.5741-1.5013-0.0829-3.0078-0.0125-4.5115-0.004l-11.204 0.0385c0.3895 0.2903 0.8147 0.4276 1.2365 0.6268zm15.928 14.3c1.4685 1.8922 3.8476 3.2031 6.478 2.5899 1.615-0.5578 2.921-1.9236 2.9866-3.7937 0.0501-2.33-1.4203-4.161-3.3174-5.2091-2.2644-1.0611-5.131-1.5904-7.7579-1.0688-1.7978-1.2293-3.7946-2.0653-6.088-2.2991-3.8577-0.2575-7.5776 0.8089-9.9799 3.6711-0.7386 0.9566-1.4782 1.9121-1.6744 3.1327l2.8232 0.006 17.588-0.0906c0.3336-0.7564 0.7236-1.3866 1.2014-1.8918 1.1671-0.9112 2.9461-0.8788 4.2121-0.2208 1.5061 0.8191 2.6857 2.1801 2.6221 4.0188-0.0135 1.2573-0.7506 2.1526-1.7871 2.8227-1.3793 0.8413-3.5194 0.6132-4.8731-0.1707-1.0211-0.6498-2.0002-1.6034-1.7365-3.0058 0.0111-0.3067 0.2627-0.513 0.2429-0.8201-0.9796-0.0656-1.9018-0.006-2.8246 0.054l0.3057 0.0414c0.8383 0.582 1.0177 1.6011 1.5784 2.2336zm1.6059-0.2806c0.4912 0.876 1.4535 1.4309 2.4259 1.7105 1.4631 0.2965 3.0073 0.0135 3.9064-1.1218 0.5139-0.6566 0.7044-1.724 0.3968-2.5638-0.4734-1.3967-1.7582-2.3932-3.2518-2.6906-1.037-0.19-2.0624 0.173-2.6698 0.8885-0.1948 0.2998-0.4884 0.781-0.2262 1.1883 0.1997 0.4373-0.388 0.5699-0.5221 0.9025-0.2936 0.4812-0.3177 1.1865-0.0592 1.6864zm-11.904 6.0586c-0.3211-0.5024-0.3543-1.3012-0.0896-1.844-1.8687-3.5941-5.6821-6.0287-10.065-6.182-0.2801 0.1128 0.0695 0.647-0.3292 0.633-0.1225-0.004-0.2748-0.04-0.3399 0.0805-0.068 0.1817 0.1354 0.4961-0.1702 0.4537-0.8885-0.0304-1.751 0.0617-2.5768-0.028-0.0555-0.1562-0.0188-0.338-0.1061-0.4643l-0.4266-0.1065-0.0709-0.5858c-0.2435-0.0704-0.646 0.0391-0.7294-0.2097-0.006-1.5957 0.8779-3.1606 2.1612-3.8833 1.1624-0.7574 3.0691-0.8745 4.2353-0.005 1.8445-1.8387 4.1615-3.1694 6.4871-3.8554-0.564-0.5409-1.0428-0.8952-1.3875-1.5827-0.2955-0.3167-0.1195-0.9551-0.606-1.0949l-5.5923-2.435c-0.0584-0.0946-0.0516-0.2787 0.013-0.3679l14.211-0.0569c2.2716-0.0125 4.5756-0.0853 6.8135-0.007-0.004 0.1224 0.0834 0.2478-0.0131 0.3673-1.6863 0.8307-3.4629 1.6281-5.1198 2.4906-0.257 0.3287-0.2435 0.82-0.4402 1.1816-0.2681 0.6349-0.7135 1.0799-1.157 1.494 1.547 0.5144 2.9678 1.1474 4.2897 1.9602 3.3621-0.496 6.7113 0.2647 9.2862 2.1044 1.6666 1.4998 2.8145 3.7802 2.1174 6.18-0.4267 1.6729-2.0056 2.937-3.676 3.3082-3.0002 0.6629-5.6768-0.9039-7.3159-3.1703l-0.9551-1.6594c-0.5201-0.0491-0.9627 0.3346-1.4014 0.5954-1.5789 1.2641-3.0985 2.5918-3.9937 4.4942 0.3505 0.5337 0.5057 1.3373 0.2073 1.9713-0.2661 0.604-0.9584 1.1016-1.6343 1.1088-0.7058 0.006-1.3374-0.3842-1.6257-0.8856zm-12.51 2.9413c-1.5803-1.3138-2.5527-3.3415-2.1068-5.5664 0.282-1.0644 1.0216-2.0199 2.0489-2.4442 0.2156-0.0241 0.3606 0.2266 0.4788 0.3539-0.472 0.3519-1.037 0.7-1.3634 1.2414-1.0616 1.4048-0.5549 3.6008 0.3201 4.9203 0.2483-0.0834 0.2893-0.3881 0.4194-0.5988 0.8611-0.9217 1.6777-2.3353 1.0501-3.7073l-0.3973-0.9343c0.1866-0.0545 0.458 0.0776 0.6397 0.1456 0.5545 0.8166 0.7892 2.0219 0.3852 3.0208-0.3085 0.9406-1.2476 1.4593-1.4058 2.4664-0.0135 0.3982 0.1582 0.742 0.0237 1.106" fill="#fff"/><path d="m114.51 174.95l-11.74 1.89-0.2 0.1c1.73 1.78 1.73 4.49 1.53 6.98-0.77 4.65-2.25 9.09-2.6 13.94 0.05 4.08-0.87 8.87 2.24 11.78 0.72 0.41 1.68 0.82 2.55 0.41 1.17-0.61 1.53-1.94 1.69-3.16l-3.32 1.02-0.1-0.05c-0.21-1.74-0.41-3.93 1.27-4.9 4.95-1.18 10-2.25 14.95-3.47-0.3-0.62-0.61-1.28-0.86-1.94-2.2-6.73 3.41-12.81 0.15-19.34-1.12-2.09-3.32-3.16-5.56-3.26zm-14.22 2.36c-1.28-0.02-2.608 0.37-3.233 1.62-0.459 1.12-0.715 2.75 0.101 3.77 0.255 0.31 0.563 0.51 0.971 0.51 0.409-0.05 0.815-0.25 1.07-0.61 0.612-0.76 0.511-2.04 0.358-3.01l0.154-0.15c0.869-0.21 1.789-0.36 2.649-0.67 0.05-0.15-0.1-0.25-0.15-0.4-0.31-0.57-0.87-0.87-1.38-1.02-0.18-0.02-0.36-0.04-0.54-0.04zm2.53 2.69c-0.66 0.1-1.38 0.2-1.94 0.46 0.05 0.81-0.15 1.63-0.35 2.39l2.44-0.51c0.16-0.76 0.01-1.58-0.15-2.34zm20.72 20.25c-0.56 0-1.13 0.21-1.69 0.26l-11.02 2.45-2.55 0.61 0.31 0.51c0.87 1.58 0.66 3.73 0 5.31l12.91-3.98c0.76-0.36 1.63-0.41 2.24-1.12 0.77-1.18 0.36-2.92-0.2-4.04zm-16.9 3.71c-0.21-0.03-0.43 0.03-0.6 0.22-0.41 0.62-0.46 1.43-0.41 2.2 0.76-0.26 1.53-0.41 2.24-0.77-0.1-0.36-0.15-0.71-0.35-0.97-0.16-0.35-0.52-0.64-0.88-0.68z" transform="matrix(.8 0 0 -.8 330.32 609.45)"/><path d="m172.52 62.381c-0.33485-0.0073-0.67439 0.004-1.0156 0.03125h-21.742c-2.5395 0.1465-4.5032 1.9747-5.2246 4.2051-0.725 2.4592 0.254 4.9473 2.0469 6.4238 1.5312 1.2811 4.1594 1.7842 6.1445 0.90625v30.461h0.58789l0.0391-30.869c0.64912-0.2935 1.1894-0.8338 1.6914-1.3574h13.256c0.67013 0.734 1.3033 1.2239 2.1289 1.7324l-0.006 30.494h0.60547v-30.256c0.75325 0.241 1.5517 0.2537 2.3477 0.26758 2.1236-0.267 4.3001-1.33 5.168-3.3301 0.97924-1.7699 0.72292-4.3611-0.42383-5.9395-1.129-1.817-3.2596-2.7186-5.6035-2.7695zm-22.92 0.75c0.109 0.26812 0.0265 0.60969 0.0215 0.91406-1.7476 0.34888-3.1723 1.6164-3.582 3.3965-0.33325 1.7048 0.3588 3.3137 1.5918 4.2852 1.1576 0.97138 3.0841 1.2718 4.4961 0.61133 1.6041-0.7315 2.6137-2.1967 2.6074-4.0215-0.0109-1.5596-0.89285-3.0209-2.168-3.7266 0.49237-0.03012 1.1766-0.20861 1.6641 0.10352 1.301 1.3541 1.9085 3.5325 1.1914 5.459-0.0784 0.18862-0.1564 0.37778-0.19727 0.56641l0.33984 0.04492 12.611 0.0293c-0.24712-0.9925-0.607-2.0638-0.35937-3.2383 0.16937-1.0245 0.63993-2.0032 1.3359-2.7891 0.45688-0.10638 1.0604-0.01922 1.5527-0.01172-1.2288 0.89188-2.008 2.2859-1.9629 3.8828 0.11987 1.8278 1.2692 3.2534 2.8867 3.9277 1.7692 0.63875 3.7872-0.0095 4.834-1.3594 0.92738-1.0491 1.2583-2.7159 0.75391-4.1309-0.4665-1.4149-1.7357-2.465-3.1699-2.832-0.0699-0.30613 0.0129-0.72191-0.0215-0.98828 2.0398 0.30116 3.7913 2.0067 4.2891 3.9531 0.45777 1.9471-0.18388 3.9899-1.6074 5.2188-1.4259 1.4205-3.8165 1.7595-5.6973 1.0039-0.90338-0.43388-1.7242-1.0578-2.3926-1.9062l-13.822-0.05078c-1.2794 1.6506-3.3787 2.6034-5.6055 2.1074-1.9224-0.52725-3.4158-1.8463-3.9883-3.7578-0.53325-1.9862 0.0358-4.1435 1.5352-5.4492 0.8455-0.669 1.7623-1.1476 2.8633-1.2422zm0.50391 1.5293c1.3638-0.05187 2.5286 0.50152 3.3066 1.541 0.62675 0.92388 0.82868 2.2956 0.42968 3.4297-0.43562 1.1324-1.4377 2.1055-2.6543 2.3496-1.5205 0.31638-2.987-0.27967-3.8379-1.4355-0.73938-1.0009-0.93863-2.6787-0.3125-3.8086 0.5875-1.1305 1.742-2.0232 3.0684-2.0762zm11.883 0.08789c1.3918-0.0073 2.7834-0.01045 4.1465 0.01367-1.8428 1.4885-4.8013 1.7761-7.0195 0.78711-0.45262-0.19762-0.90469-0.36223-1.2734-0.78711 1.3622 0.005 2.7547-0.0064 4.1465-0.01367zm11.115 0.05664c1.2884 0.02225 2.5273 0.68908 3.1914 1.6895 0.702 1.0389 0.82653 2.5249 0.23828 3.6543-0.6285 1.2829-1.8555 2.0984-3.3711 2.1484-1.3644 0.01387-2.5618-0.80662-3.1856-1.8438-0.62675-0.99912-0.78633-2.7506-0.0488-3.8027 0.70038-1.0908 1.8114-1.7938 3.1758-1.8457zm-23.023 1.3477c-0.9105 0.09888-1.5663 0.73389-1.8086 1.6035-0.12462 0.64412-0.0626 1.4058 0.42188 1.8711 0.44412 0.61588 1.2708 1.0113 2.1445 0.83594 0.7225-0.13988 1.261-0.66255 1.5762-1.3418 0.27725-0.6785 0.14112-1.5178-0.26563-2.0957-0.44475-0.57738-1.2325-0.9713-2.0684-0.87305zm22.799 0.09375c-0.72187 0.06387-1.411 0.58405-1.6504 1.2637-0.39112 0.79188-0.18451 1.7854 0.41211 2.4043 0.5225 0.50263 1.2391 0.74327 1.9609 0.60352 0.83587-0.138 1.5256-0.73409 1.7305-1.6055 0.16575-0.75688-0.0479-1.5221-0.57031-2.0254-0.4845-0.464-1.1247-0.70338-1.8828-0.64062zm-15.689 8.6855c-0.349 0-0.63281 0.28269-0.63281 0.63281v28.844h1.2578l0.006-28.844c0-0.35012-0.28011-0.63281-0.63086-0.63281zm4.7637 0c-0.349 0-0.63476 0.28269-0.63476 0.63281v28.844h1.2578l0.01-28.844c0-0.35012-0.28393-0.63281-0.63281-0.63281zm4.7617 0c-0.35137 0-0.63476 0.28269-0.63477 0.63281v28.844h1.2617l0.006-28.844c0-0.35012-0.28393-0.63281-0.63281-0.63281z" transform="matrix(.8 0 0 -.8 330.32 609.45)" fill="#fff"/></g><g><path d="m455.54 553.97h1.9689v1.6719h-1.9689v-1.6719z"/><path d="m458.32 553.97h2.7938v1.6719h-2.7938v-1.6719z"/><path d="m461.82 553.98h1.9674v1.6719h-1.9674v-1.6719z"/></g><path d="m436.67 476.3v-54.731" stroke="#fff" stroke-width="2.5323" fill="none"/><path d="m449.73 457.28c0 2.6357 1.2549 4.9777 3.1987 6.4631l-2.0595 2.8352c-4.3172-1.7741-7.2435-5.2028-7.2435-9.1416 0-1.4347 0.3876-2.8005 1.089-4.0429l5.308 1.7245c-0.19 0.6875-0.2927 1.4135-0.2927 2.1617zm8.1321 8.1307c1.6112 0 3.1129-0.4711 4.3779-1.2815l1.8446 2.5388c-1.94 0.7626-4.15 1.198-6.4935 1.198-2.4379 0-4.7274-0.4676-6.7219-1.2877l2.0595-2.8352c1.3683 1.0466 3.0763 1.6676 4.9334 1.6676zm6.2225 1.2573-1.8446-2.5388c2.2543-1.4434 3.7512-3.971 3.7512-6.8492 0-0.8393-0.1263-1.6478-0.3625-2.409l4.7897-1.5572c0.7308 1.265 1.1358 2.6578 1.1358 4.1229 0 4.0077-3.0295 7.4875-7.4696 9.2313zm-14.062-11.55-5.308-1.7245c2.0971-3.7208 7.0011-6.3391 12.729-6.3839v2.1491c-3.5569 0.1789-6.5098 2.6473-7.4214 5.9593zm7.8394-5.9703c-0.1403 0-0.2792 0.005-0.418 0.011v-2.1491c0.0497-0.002 0.0974-0.002 0.147-0.002 5.7515 0 10.688 2.5956 12.827 6.3054l-4.7897 1.5572c-1.0259-3.3154-4.1162-5.723-7.7666-5.723z" stroke="#fff" stroke-width=".83320" fill="none"/></g></g></svg>
