<?xml version="1.0" encoding="UTF-8"?>
<svg id="Layer_2" data-name="Layer 2" xmlns="http://www.w3.org/2000/svg" viewBox="0 0 360 332.18">
  <defs>
    <style>
      .cls-1, .cls-2, .cls-3 {
        fill: #cc3427;
      }

      .cls-1, .cls-2, .cls-3, .cls-4 {
        stroke-width: 0px;
      }

      .cls-1, .cls-2, .cls-4 {
        fill-rule: evenodd;
      }

      .cls-5 {
        font-family: ArialMT, Arial;
        font-size: 101.54px;
        isolation: isolate;
      }

      .cls-5, .cls-4 {
        fill: #fff;
      }

      .cls-2 {
        opacity: .69;
      }
    </style>
  </defs>
  <g id="Layer_2-2" data-name="Layer 2">
    <g>
      <path class="cls-2" d="m307.64,166.03l-127.53,108.52V57.51l127.53,108.52Z"/>
      <g>
        <polygon class="cls-3" points="210.08 302.48 353.21 159.36 360 166.07 216.84 309.24 210.08 302.48"/>
        <polygon class="cls-3" points="216.84 22.91 359.94 166.01 353.06 172.64 210.08 29.66 216.84 22.91"/>
      </g>
      <g>
        <polygon class="cls-1" points="0 166.09 180.87 332.18 180.87 0 0 166.09"/>
        <path class="cls-4" d="m181.17,52.62c-68.4,0-123.87,50.8-123.87,113.4,0,62.61,55.48,113.4,123.87,113.4v-7.35c-63.94,0-115.85-47.46-115.85-106.05,0-58.6,51.91-106.05,115.85-106.05v-7.35Z"/>
      </g>
      <g>
        <g id="Curcuit-Board6">
          <g id="Straight-curcuit5">
            <rect class="cls-3" x="180.8" y="172.47" width="81.23" height="3.23"/>
            <path class="cls-1" d="m266.46,168.84c3.23,0,5.92,2.29,5.92,5.24s-2.69,5.24-5.92,5.24-5.92-2.29-5.92-5.24,2.69-5.24,5.92-5.24Zm0,2.56c1.61,0,2.96,1.21,2.96,2.56s-1.34,2.56-2.96,2.56-2.96-1.21-2.96-2.56,1.34-2.56,2.96-2.56Z"/>
          </g>
          <g id="Curcuit50">
            <rect class="cls-3" x="211.59" y="182.83" width="33.89" height="3.36"/>
            <path class="cls-1" d="m207.83,179.33c2.82,0,5.24,2.29,5.24,5.24s-2.29,5.24-5.24,5.24-5.24-2.29-5.24-5.24,2.29-5.24,5.24-5.24Zm0,2.56c1.48,0,2.56,1.21,2.56,2.56s-1.21,2.56-2.56,2.56-2.56-1.21-2.56-2.56,1.21-2.56,2.56-2.56Z"/>
            <path class="cls-1" d="m249.11,179.19c2.82,0,5.24,2.29,5.24,5.24s-2.29,5.24-5.24,5.24-5.24-2.29-5.24-5.24,2.29-5.24,5.24-5.24Zm0,2.56c1.48,0,2.56,1.21,2.56,2.56s-1.21,2.56-2.56,2.56-2.56-1.21-2.56-2.56,1.21-2.56,2.56-2.56Z"/>
          </g>
          <g>
            <rect class="cls-3" x="180.8" y="182.96" width="9.95" height="3.23"/>
            <path class="cls-1" d="m194.65,179.19c2.82,0,5.24,2.29,5.24,5.24s-2.29,5.24-5.24,5.24-5.24-2.29-5.24-5.24,2.29-5.24,5.24-5.24Zm0,2.56c1.48,0,2.56,1.21,2.56,2.56s-1.21,2.56-2.56,2.56-2.56-1.21-2.56-2.56,1.21-2.56,2.56-2.56Z"/>
          </g>
          <g>
            <rect class="cls-3" x="180.8" y="103.62" width="9.95" height="3.23"/>
            <path class="cls-1" d="m194.65,99.85c2.82,0,5.24,2.29,5.24,5.24s-2.29,5.24-5.24,5.24-5.24-2.29-5.24-5.24,2.29-5.24,5.24-5.24Zm0,2.56c1.48,0,2.56,1.21,2.56,2.56s-1.21,2.56-2.56,2.56-2.56-1.21-2.56-2.56,1.21-2.56,2.56-2.56Z"/>
          </g>
          <g id="Curcuit51">
            <rect class="cls-3" x="180.8" y="145.31" width="16.68" height="3.23"/>
            <path class="cls-1" d="m204.06,148.94c2.82,0,5.24,2.29,5.24,5.24s-2.29,5.24-5.24,5.24-5.24-2.29-5.24-5.24,2.29-5.24,5.24-5.24Zm0,2.56c1.48,0,2.56,1.21,2.56,2.56s-1.21,2.56-2.56,2.56-2.56-1.21-2.56-2.56,1.21-2.56,2.56-2.56Z"/>
            <polygon class="cls-1" points="197.47 145.31 202.45 150.28 200.16 152.57 195.19 147.73 197.47 145.31"/>
          </g>
          <g id="Curcuit52">
            <rect class="cls-3" x="180.8" y="94.07" width="30.66" height="3.36"/>
            <rect class="cls-3" x="206.28" y="84.95" width="27.3" height="3.36" transform="translate(3.16 180.89) rotate(-45)"/>
            <rect class="cls-3" x="228.27" y="75.78" width="10.22" height="3.36"/>
            <path class="cls-1" d="m242.26,72.28c2.82,0,5.24,2.29,5.24,5.24s-2.29,5.24-5.24,5.24-5.24-2.29-5.24-5.24,2.29-5.24,5.24-5.24Zm0,2.56c1.48,0,2.56,1.21,2.56,2.56s-1.21,2.56-2.56,2.56-2.56-1.21-2.56-2.56,1.21-2.56,2.56-2.56Z"/>
          </g>
          <g id="Curcuit53">
            <g>
              <rect class="cls-3" x="180.8" y="162.65" width="80.82" height="3.09"/>
              <polygon class="cls-1" points="257.85 163.6 266.86 157.54 270.23 159.83 261.22 165.75 257.85 163.6"/>
              <path class="cls-1" d="m270.23,151.49c2.82,0,5.24,2.29,5.24,5.24s-2.29,5.24-5.24,5.24-5.24-2.29-5.24-5.24,2.29-5.24,5.24-5.24Zm0,2.56c1.48,0,2.56,1.21,2.56,2.56s-1.21,2.56-2.56,2.56-2.56-1.21-2.56-2.56,1.21-2.56,2.56-2.56Z"/>
            </g>
          </g>
          <g id="Curcuit54">
            <polygon class="cls-1" points="264.04 130.24 250.32 116.53 252.61 114.11 266.46 127.82 264.04 130.24"/>
            <path class="cls-1" d="m267.94,125.81c2.82,0,5.24,2.29,5.24,5.24s-2.29,5.24-5.24,5.24-5.24-2.29-5.24-5.24,2.29-5.24,5.24-5.24Zm0,2.56c1.48,0,2.56,1.21,2.56,2.56s-1.21,2.56-2.56,2.56-2.56-1.21-2.56-2.56,1.21-2.56,2.56-2.56Z"/>
            <rect class="cls-3" x="180.8" y="114.11" width="71.95" height="3.36"/>
          </g>
          <g id="Small-Curcuit5">
            <polygon class="cls-1" points="275.61 119.08 263.77 107.25 266.19 104.96 278.03 116.66 275.61 119.08"/>
            <path class="cls-1" d="m262.56,97.84c2.82,0,5.24,2.29,5.24,5.24s-2.29,5.24-5.24,5.24-5.24-2.29-5.24-5.24,2.29-5.24,5.24-5.24Zm0,2.56c1.48,0,2.56,1.21,2.56,2.56s-1.21,2.56-2.56,2.56-2.56-1.21-2.56-2.56,1.21-2.56,2.56-2.56Z"/>
            <path class="cls-1" d="m279.64,115.72c2.82,0,5.24,2.29,5.24,5.24s-2.29,5.24-5.24,5.24-5.24-2.29-5.24-5.24,2.29-5.24,5.24-5.24Zm0,2.56c1.48,0,2.56,1.21,2.56,2.56s-1.21,2.56-2.56,2.56-2.56-1.21-2.56-2.56,1.21-2.56,2.56-2.56Z"/>
          </g>
          <g id="Curcuit55">
            <path class="cls-1" d="m221.95,132.93c2.82,0,5.24,2.29,5.24,5.24s-2.29,5.24-5.24,5.24-5.24-2.29-5.24-5.24,2.29-5.24,5.24-5.24Zm0,2.56c1.48,0,2.56,1.21,2.56,2.56s-1.21,2.56-2.56,2.56-2.56-1.21-2.56-2.56,1.21-2.56,2.56-2.56Z"/>
            <path class="cls-1" d="m251.67,123.79c2.82,0,5.24,2.29,5.24,5.24s-2.29,5.24-5.24,5.24-5.24-2.29-5.24-5.24,2.29-5.24,5.24-5.24Zm0,2.56c1.48,0,2.56,1.21,2.56,2.56s-1.21,2.56-2.56,2.56-2.56-1.21-2.56-2.56,1.21-2.56,2.56-2.56Z"/>
            <rect class="cls-3" x="225.14" y="131.79" width="23.94" height="3.36" transform="translate(-26.44 65.83) rotate(-14.98)"/>
          </g>
          <g id="Curcuit56">
            <path class="cls-1" d="m279.64,132.93c2.82,0,5.24,2.29,5.24,5.24s-2.29,5.24-5.24,5.24-5.24-2.29-5.24-5.24,2.29-5.24,5.24-5.24Zm0,2.56c1.48,0,2.56,1.21,2.56,2.56s-1.21,2.56-2.56,2.56-2.56-1.21-2.56-2.56,1.21-2.56,2.56-2.56Z"/>
            <rect class="cls-3" x="180.8" y="133.47" width="24.88" height="3.36"/>
            <rect class="cls-3" x="220.6" y="149.74" width="39.54" height="3.36"/>
            <polygon class="cls-1" points="205.81 133.47 223.02 150.82 220.74 153.11 203.39 135.89 205.81 133.47"/>
            <polygon class="cls-1" points="277.49 140.87 260.01 153.11 257.99 150.42 275.47 138.18 277.49 140.87"/>
          </g>
          <g id="Curcuit57">
            <path class="cls-1" d="m253.55,85.6c2.82,0,5.24,2.29,5.24,5.24s-2.29,5.24-5.24,5.24-5.24-2.29-5.24-5.24,2.29-5.24,5.24-5.24Zm0,2.56c1.48,0,2.56,1.21,2.56,2.56s-1.21,2.56-2.56,2.56-2.56-1.21-2.56-2.56,1.21-2.56,2.56-2.56Z"/>
            <path class="cls-1" d="m211.59,99.85c2.82,0,5.24,2.29,5.24,5.24s-2.29,5.24-5.24,5.24-5.24-2.29-5.24-5.24,2.29-5.24,5.24-5.24Zm0,2.56c1.48,0,2.56,1.21,2.56,2.56s-1.21,2.56-2.56,2.56-2.56-1.21-2.56-2.56,1.21-2.56,2.56-2.56Z"/>
            <rect class="cls-3" x="214.96" y="103.62" width="24.88" height="3.36"/>
            <polygon class="cls-1" points="237.41 104.56 249.25 92.72 251.67 95.01 239.7 106.98 237.41 104.56"/>
          </g>
        </g>
        <g id="Straight-curcuit5-2" data-name="Straight-curcuit5">
          <rect class="cls-3" x="155.77" y="207.64" width="81.23" height="3.23"/>
          <path class="cls-1" d="m235.51,209.26c0-2.96,2.69-5.24,5.92-5.24s5.92,2.29,5.92,5.24-2.69,5.24-5.92,5.24-5.92-2.29-5.92-5.24Zm2.96.13c0-1.34,1.34-2.56,2.96-2.56s2.96,1.21,2.96,2.56-1.34,2.56-2.96,2.56-2.96-1.21-2.96-2.56Z"/>
        </g>
        <g id="Curcuit50-2" data-name="Curcuit50">
          <rect class="cls-3" x="186.56" y="197.16" width="33.89" height="3.36"/>
          <path class="cls-1" d="m177.55,198.77c0-2.96,2.29-5.24,5.24-5.24s5.24,2.29,5.24,5.24-2.42,5.24-5.24,5.24-5.24-2.29-5.24-5.24Zm2.69.13c0-1.34,1.21-2.56,2.56-2.56s2.56,1.21,2.56,2.56-1.08,2.56-2.56,2.56c-1.34,0-2.56-1.21-2.56-2.56Z"/>
          <path class="cls-1" d="m218.84,198.9c0-2.96,2.29-5.24,5.24-5.24s5.24,2.29,5.24,5.24-2.42,5.24-5.24,5.24-5.24-2.29-5.24-5.24Zm2.69.13c0-1.34,1.21-2.56,2.56-2.56s2.56,1.21,2.56,2.56-1.08,2.56-2.56,2.56c-1.34,0-2.56-1.21-2.56-2.56Z"/>
        </g>
        <g id="Curcuit51-2" data-name="Curcuit51">
          <rect class="cls-3" x="155.77" y="234.81" width="16.68" height="3.23"/>
          <path class="cls-1" d="m173.79,229.16c0-2.96,2.29-5.24,5.24-5.24s5.24,2.29,5.24,5.24-2.42,5.24-5.24,5.24-5.24-2.29-5.24-5.24Zm2.69.13c0-1.34,1.21-2.56,2.56-2.56s2.56,1.21,2.56,2.56-1.08,2.56-2.56,2.56c-1.34,0-2.56-1.21-2.56-2.56Z"/>
          <polygon class="cls-1" points="170.16 235.62 175.13 230.77 177.42 233.06 172.44 238.04 170.16 235.62"/>
        </g>
        <g id="Curcuit53-2" data-name="Curcuit53">
          <g>
            <rect class="cls-3" x="155.77" y="217.6" width="80.82" height="3.09"/>
            <polygon class="cls-1" points="236.19 217.6 245.2 223.51 241.83 225.8 232.82 219.75 236.19 217.6"/>
            <path class="cls-1" d="m239.95,226.61c0-2.96,2.29-5.24,5.24-5.24s5.24,2.29,5.24,5.24-2.42,5.24-5.24,5.24-5.24-2.29-5.24-5.24Zm2.69.13c0-1.34,1.21-2.56,2.56-2.56s2.56,1.21,2.56,2.56-1.08,2.56-2.56,2.56c-1.34,0-2.56-1.21-2.56-2.56Z"/>
          </g>
        </g>
        <g id="Curcuit55-2" data-name="Curcuit55">
          <path class="cls-1" d="m191.67,245.16c0-2.96,2.29-5.24,5.24-5.24s5.24,2.29,5.24,5.24-2.42,5.24-5.24,5.24c-2.96,0-5.24-2.29-5.24-5.24Zm2.69.13c0-1.34,1.21-2.56,2.56-2.56s2.56,1.21,2.56,2.56-1.08,2.56-2.56,2.56c-1.34,0-2.56-1.21-2.56-2.56Z"/>
          <path class="cls-1" d="m221.39,254.31c0-2.96,2.29-5.24,5.24-5.24s5.24,2.29,5.24,5.24-2.42,5.24-5.24,5.24-5.24-2.29-5.24-5.24Zm2.69.13c0-1.34,1.21-2.56,2.56-2.56s2.56,1.21,2.56,2.56-1.08,2.56-2.56,2.56c-1.34,0-2.56-1.21-2.56-2.56Z"/>
          <rect class="cls-3" x="210.4" y="237.9" width="3.36" height="23.94" transform="translate(-84.12 390.16) rotate(-75.02)"/>
        </g>
        <g id="Curcuit56-2" data-name="Curcuit56">
          <path class="cls-1" d="m249.36,245.16c0-2.96,2.29-5.24,5.24-5.24s5.24,2.29,5.24,5.24-2.42,5.24-5.24,5.24c-2.96,0-5.24-2.29-5.24-5.24Zm2.69.13c0-1.34,1.21-2.56,2.56-2.56s2.56,1.21,2.56,2.56-1.08,2.56-2.56,2.56c-1.34,0-2.56-1.21-2.56-2.56Z"/>
          <rect class="cls-3" x="155.77" y="246.51" width="24.88" height="3.36"/>
          <rect class="cls-3" x="195.57" y="230.24" width="39.54" height="3.36"/>
          <polygon class="cls-1" points="178.36 247.45 195.71 230.24 197.99 232.52 180.78 249.87 178.36 247.45"/>
          <polygon class="cls-1" points="250.44 245.16 232.96 232.93 234.98 230.24 252.46 242.47 250.44 245.16"/>
        </g>
      </g>
      <text class="cls-5" transform="translate(83.83 193.53)"><tspan x="0" y="0">acm</tspan></text>
    </g>
  </g>
</svg>